<mxfile host="app.diagrams.net" modified="2020-05-27T04:43:58.590Z" agent="5.0 (X11)" etag="quhAQBTXUHNJ1eoMFWPX" version="13.1.3" type="github">
  <diagram id="2M21agJGZ8iyQy0Du0Jo" name="Page-1">
    <mxGraphModel dx="1355" dy="747" grid="1" gridSize="10" guides="1" tooltips="1" connect="1" arrows="1" fold="1" page="1" pageScale="1" pageWidth="850" pageHeight="1100" math="0" shadow="0">
      <root>
        <mxCell id="0" />
        <mxCell id="1" parent="0" />
        <UserObject label="" lucidchartObjectId="Q3QvZ5mVjj_w" id="SCCUJkE0aKdH4ksJEnu--1">
          <mxCell style="html=1;whiteSpace=wrap;shape=image;fontSize=11;spacing=0;strokeColor=none;strokeOpacity=100;strokeWidth=0;image=https://images.lucidchart.com/images/76043290-3eca-47d3-a1d5-19b913a3a131/content;" parent="1" vertex="1">
            <mxGeometry x="456" y="336" width="83" height="84" as="geometry" />
          </mxCell>
        </UserObject>
        <UserObject label="Client Computer " lucidchartObjectId="I4QvwSpZ2hfq" id="SCCUJkE0aKdH4ksJEnu--2">
          <mxCell style="html=1;whiteSpace=wrap;;fontSize=13;fontColor=#000000;spacing=3;strokeOpacity=0;fillOpacity=0;fillColor=#ffffff;" parent="1" vertex="1">
            <mxGeometry x="360" y="420" width="144" height="36" as="geometry" />
          </mxCell>
        </UserObject>
        <UserObject label="" lucidchartObjectId="~5QvC3WyoEIg" id="SCCUJkE0aKdH4ksJEnu--3">
          <mxCell style="html=1;whiteSpace=wrap;shape=image;fontSize=11;spacing=0;strokeColor=none;strokeOpacity=100;strokeWidth=0;image=https://images.lucidchart.com/images/235d3bad-5ff0-44a1-a7b1-b57fd6d121a1/content;" parent="1" vertex="1">
            <mxGeometry x="120" y="334" width="84" height="88" as="geometry" />
          </mxCell>
        </UserObject>
        <UserObject label="DHCP server" lucidchartObjectId="57QvO-A3U8YZ" id="SCCUJkE0aKdH4ksJEnu--4">
          <mxCell style="html=1;whiteSpace=wrap;;fontSize=13;fontColor=#000000;spacing=3;strokeOpacity=0;fillOpacity=0;fillColor=#ffffff;" parent="1" vertex="1">
            <mxGeometry x="96" y="420" width="144" height="36" as="geometry" />
          </mxCell>
        </UserObject>
        <UserObject label="" lucidchartObjectId="j8QvqhEK9lQU" id="SCCUJkE0aKdH4ksJEnu--5">
          <mxCell style="html=1;whiteSpace=wrap;shape=image;fontSize=11;spacing=0;strokeColor=none;strokeOpacity=100;strokeWidth=0;image=https://images.lucidchart.com/images/235d3bad-5ff0-44a1-a7b1-b57fd6d121a1/content;" parent="1" vertex="1">
            <mxGeometry x="444" y="93" width="96" height="101" as="geometry" />
          </mxCell>
        </UserObject>
        <UserObject label="TFTP server" lucidchartObjectId="j8Qvy92T-ITA" id="SCCUJkE0aKdH4ksJEnu--6">
          <mxCell style="html=1;whiteSpace=wrap;;fontSize=13;fontColor=#000000;spacing=3;strokeOpacity=0;fillOpacity=0;fillColor=#ffffff;" parent="1" vertex="1">
            <mxGeometry x="408" y="194" width="144" height="36" as="geometry" />
          </mxCell>
        </UserObject>
        <UserObject label="" lucidchartObjectId="q8QvvMFkctj9" id="SCCUJkE0aKdH4ksJEnu--7">
          <mxCell style="html=1;whiteSpace=wrap;shape=image;fontSize=11;spacing=0;strokeColor=none;strokeOpacity=100;strokeWidth=0;image=https://images.lucidchart.com/images/235d3bad-5ff0-44a1-a7b1-b57fd6d121a1/content;" parent="1" vertex="1">
            <mxGeometry x="876" y="334" width="84" height="88" as="geometry" />
          </mxCell>
        </UserObject>
        <UserObject label="Storage server" lucidchartObjectId="q8QvSveWSGFj" id="SCCUJkE0aKdH4ksJEnu--8">
          <mxCell style="html=1;whiteSpace=wrap;;fontSize=13;fontColor=#000000;spacing=3;strokeOpacity=0;fillOpacity=0;fillColor=#ffffff;" parent="1" vertex="1">
            <mxGeometry x="846" y="420" width="144" height="36" as="geometry" />
          </mxCell>
        </UserObject>
        <UserObject label="" lucidchartObjectId="g-QvmvYCf~uo" id="SCCUJkE0aKdH4ksJEnu--9">
          <mxCell style="html=1;jettySize=18;fontSize=11;rounded=1;arcSize=0;edgeStyle=orthogonalEdgeStyle;startArrow=block;endFill=1;;endArrow=block;endFill=1;;exitX=1.000000002516688;exitY=0.7624171463473316;exitPerimeter=1;entryX=0;entryY=0.7761904761904759;entryPerimeter=1;" parent="1" source="SCCUJkE0aKdH4ksJEnu--3" target="SCCUJkE0aKdH4ksJEnu--1" edge="1">
            <mxGeometry width="100" height="100" relative="1" as="geometry">
              <Array as="points" />
            </mxGeometry>
          </mxCell>
        </UserObject>
        <UserObject label="Assign IP address, give location of boot file on tftp server" lucidchartObjectId="A~QvfdHYFc35" id="SCCUJkE0aKdH4ksJEnu--10">
          <mxCell style="html=1;whiteSpace=wrap;;fontSize=13;fontColor=#000000;spacing=3;strokeOpacity=0;fillOpacity=0;fillColor=#ffffff;" parent="1" vertex="1">
            <mxGeometry x="312" y="343" width="144" height="54" as="geometry" />
          </mxCell>
        </UserObject>
        <UserObject label="Store and transfer boot file at boot time" lucidchartObjectId="2aRv_eDL1FGD" id="SCCUJkE0aKdH4ksJEnu--11">
          <mxCell style="html=1;whiteSpace=wrap;;fontSize=13;fontColor=#000000;spacing=3;strokeOpacity=0;fillOpacity=0;fillColor=#ffffff;" parent="1" vertex="1">
            <mxGeometry x="504" y="264" width="144" height="38" as="geometry" />
          </mxCell>
        </UserObject>
        <UserObject label="" lucidchartObjectId="eeRv_Ruy827t" id="SCCUJkE0aKdH4ksJEnu--12">
          <mxCell style="html=1;jettySize=18;fontSize=11;rounded=1;arcSize=0;edgeStyle=orthogonalEdgeStyle;startArrow=block;endFill=1;;endArrow=block;endFill=1;;exitX=1.0000000026630094;exitY=0.7761904761904759;exitPerimeter=1;entryX=0;entryY=0.7624171463473317;entryPerimeter=1;" parent="1" source="SCCUJkE0aKdH4ksJEnu--1" target="SCCUJkE0aKdH4ksJEnu--7" edge="1">
            <mxGeometry width="100" height="100" relative="1" as="geometry">
              <Array as="points" />
            </mxGeometry>
          </mxCell>
        </UserObject>
        <UserObject label="Store and transfer images to be deployed " lucidchartObjectId="PeRvPA3A6_6A" id="SCCUJkE0aKdH4ksJEnu--13">
          <mxCell style="html=1;whiteSpace=wrap;;fontSize=13;fontColor=#000000;spacing=3;strokeOpacity=0;fillOpacity=0;fillColor=#ffffff;" parent="1" vertex="1">
            <mxGeometry x="660" y="348" width="144" height="38" as="geometry" />
          </mxCell>
        </UserObject>
        <UserObject label="" lucidchartObjectId="MjRvvEBfUxa-" id="SCCUJkE0aKdH4ksJEnu--14">
          <mxCell style="html=1;jettySize=18;fontSize=11;rounded=1;arcSize=0;edgeStyle=orthogonalEdgeStyle;startArrow=block;endFill=1;;endArrow=block;endFill=1;;exitX=0.5;exitY=0;exitPerimeter=1;entryX=0.623082561728395;entryY=1;entryPerimeter=1;" parent="1" source="SCCUJkE0aKdH4ksJEnu--1" target="SCCUJkE0aKdH4ksJEnu--6" edge="1">
            <mxGeometry width="100" height="100" relative="1" as="geometry">
              <Array as="points" />
            </mxGeometry>
          </mxCell>
        </UserObject>
        <UserObject label="Bootloader and Network Loaded &#xa;IDOS  " lucidchartObjectId="UJuWcXx.yYua" id="SCCUJkE0aKdH4ksJEnu--15">
          <mxCell style="html=1;whiteSpace=wrap;;fontSize=13;fontColor=#000000;spacing=3;" parent="1" vertex="1">
            <mxGeometry x="120" y="548" width="168" height="96" as="geometry" />
          </mxCell>
        </UserObject>
        <UserObject label="Deploy the required image" lucidchartObjectId="TKuWYsUd4TcZ" id="SCCUJkE0aKdH4ksJEnu--16">
          <mxCell style="html=1;whiteSpace=wrap;;fontSize=13;fontColor=#000000;spacing=3;strokeOpacity=0;fillOpacity=0;fillColor=#ffffff;" parent="1" vertex="1">
            <mxGeometry x="360" y="551" width="108" height="38" as="geometry" />
          </mxCell>
        </UserObject>
        <UserObject label="" lucidchartObjectId="duHyUTBo8qPv" id="SCCUJkE0aKdH4ksJEnu--17">
          <mxCell style="html=1;whiteSpace=wrap;shape=image;fontSize=11;spacing=0;strokeColor=none;strokeOpacity=100;strokeWidth=0;image=https://images.lucidchart.com/images/235d3bad-5ff0-44a1-a7b1-b57fd6d121a1/content;" parent="1" vertex="1">
            <mxGeometry x="660" y="552" width="84" height="88" as="geometry" />
          </mxCell>
        </UserObject>
        <UserObject label="" lucidchartObjectId="VvHy~hOIRKZH" id="SCCUJkE0aKdH4ksJEnu--18">
          <mxCell style="html=1;jettySize=18;fontSize=11;rounded=1;arcSize=0;edgeStyle=orthogonalEdgeStyle;startArrow=block;endFill=1;;endArrow=none;;exitX=0.5;exitY=1;exitPerimeter=1;entryX=1.0035714285714286;entryY=0.5;entryPerimeter=1;" parent="1" source="SCCUJkE0aKdH4ksJEnu--1" target="SCCUJkE0aKdH4ksJEnu--15" edge="1">
            <mxGeometry width="100" height="100" relative="1" as="geometry">
              <Array as="points" />
            </mxGeometry>
          </mxCell>
        </UserObject>
        <UserObject label="" lucidchartObjectId="ZAHyf-ilhV8I" id="SCCUJkE0aKdH4ksJEnu--19">
          <mxCell style="html=1;jettySize=18;fontSize=11;rounded=1;arcSize=0;edgeStyle=orthogonalEdgeStyle;startArrow=block;endFill=1;;endArrow=block;endFill=1;;exitX=0.7057804930855301;exitY=1;exitPerimeter=1;entryX=0;entryY=0.5;entryPerimeter=1;" parent="1" source="SCCUJkE0aKdH4ksJEnu--1" target="SCCUJkE0aKdH4ksJEnu--17" edge="1">
            <mxGeometry width="100" height="100" relative="1" as="geometry">
              <Array as="points" />
            </mxGeometry>
          </mxCell>
        </UserObject>
        <UserObject label="Image cloning and deployment management using APIs" lucidchartObjectId="XDHygCP_3NQm" id="SCCUJkE0aKdH4ksJEnu--20">
          <mxCell style="html=1;whiteSpace=wrap;;fontSize=13;fontColor=#000000;spacing=3;strokeOpacity=0;fillOpacity=0;fillColor=#ffffff;" parent="1" vertex="1">
            <mxGeometry x="539" y="521" width="108" height="70" as="geometry" />
          </mxCell>
        </UserObject>
        <UserObject label="Web server" lucidchartObjectId="qFHyxU7hczpv" id="SCCUJkE0aKdH4ksJEnu--21">
          <mxCell style="html=1;whiteSpace=wrap;;fontSize=13;fontColor=#000000;spacing=3;strokeOpacity=0;fillOpacity=0;fillColor=#ffffff;" parent="1" vertex="1">
            <mxGeometry x="642" y="640" width="144" height="36" as="geometry" />
          </mxCell>
        </UserObject>
        <UserObject label="" lucidchartObjectId="ONHyuMtRC88X" id="SCCUJkE0aKdH4ksJEnu--22">
          <mxCell style="html=1;whiteSpace=wrap;shape=image;fontSize=11;spacing=0;strokeColor=none;strokeOpacity=100;strokeWidth=0;image=https://images.lucidchart.com/images/febbac20-be60-4cd1-bde3-965071c7b0c4/content;" parent="1" vertex="1">
            <mxGeometry x="888" y="556" width="75" height="80" as="geometry" />
          </mxCell>
        </UserObject>
        <UserObject label="" lucidchartObjectId="gPHypTBPn7PX" id="SCCUJkE0aKdH4ksJEnu--23">
          <mxCell style="html=1;jettySize=18;fontSize=11;rounded=1;arcSize=0;edgeStyle=orthogonalEdgeStyle;startArrow=block;endFill=1;;endArrow=block;endFill=1;;exitX=1.0000000000000004;exitY=0.5;exitPerimeter=1;entryX=0;entryY=0.5000000000000002;entryPerimeter=1;" parent="1" source="SCCUJkE0aKdH4ksJEnu--17" target="SCCUJkE0aKdH4ksJEnu--22" edge="1">
            <mxGeometry width="100" height="100" relative="1" as="geometry">
              <Array as="points" />
            </mxGeometry>
          </mxCell>
        </UserObject>
        <UserObject label="Client and Task information" lucidchartObjectId="DPHyMG95Oqn9" id="SCCUJkE0aKdH4ksJEnu--24">
          <mxCell style="html=1;whiteSpace=wrap;;fontSize=13;fontColor=#000000;spacing=3;strokeOpacity=0;fillOpacity=0;fillColor=#ffffff;" parent="1" vertex="1">
            <mxGeometry x="756" y="551" width="144" height="38" as="geometry" />
          </mxCell>
        </UserObject>
        <UserObject label="Database" lucidchartObjectId="MRHyQ-1z1rl3" id="SCCUJkE0aKdH4ksJEnu--25">
          <mxCell style="html=1;whiteSpace=wrap;;fontSize=13;fontColor=#000000;spacing=3;strokeOpacity=0;fillOpacity=0;fillColor=#ffffff;" parent="1" vertex="1">
            <mxGeometry x="866" y="634" width="144" height="36" as="geometry" />
          </mxCell>
        </UserObject>
      </root>
    </mxGraphModel>
  </diagram>
</mxfile>
